<svg id="Componente_1_1" data-name="Componente 1 – 1" xmlns="http://www.w3.org/2000/svg" xmlns:xlink="http://www.w3.org/1999/xlink" width="38" height="70" viewBox="0 0 38 70">
  <defs>
    <clipPath id="clip-path">
      <rect id="Rettangolo_9" data-name="Rettangolo 9" width="38" height="33.374" transform="translate(0 0)" fill="#c60046"/>
    </clipPath>
  </defs>
  <circle id="Ellisse_8" data-name="Ellisse 8" cx="17" cy="17" r="17" transform="translate(2 34)" fill="#fff"/>
  <g id="Esclusione_1" data-name="Esclusione 1" transform="translate(-4157 32)" fill="#c60046">
    <path d="M 4176 37 C 4174.99169921875 37 4173.99609375 36.9180908203125 4173.017578125 36.75526428222656 C 4173.99365234375 36.91714477539062 4174.99072265625 36.99966812133789 4176 36.99966812133789 C 4177.02197265625 36.99966812133789 4178.03076171875 36.91508865356445 4179.0185546875 36.74927139282227 C 4178.02880859375 36.91608428955078 4177.0205078125 37 4176 37 Z M 4164.140625 32.5416374206543 C 4163.91015625 32.33937072753906 4163.68408203125 32.13064956665039 4163.46337890625 31.91585159301758 C 4163.6845703125 32.13068771362305 4163.91064453125 32.33956527709961 4164.140625 32.5416374206543 Z M 4163.16796875 31.62233352661133 C 4162.8408203125 31.29035758972168 4162.5283203125 30.94757080078125 4162.22998046875 30.59438514709473 C 4162.52783203125 30.94699096679688 4162.8408203125 31.28992652893066 4163.16796875 31.62233352661133 Z M 4158.27587890625 22.1632022857666 C 4158.09228515625 21.12666893005371 4158 20.07043266296387 4158 19 C 4158 17.9309024810791 4158.09228515625 16.87590599060059 4158.275390625 15.84060287475586 C 4158.09326171875 16.87334251403809 4158.00048828125 17.92957496643066 4158.00048828125 19 C 4158.00048828125 20.07189178466797 4158.09326171875 21.12911224365234 4158.27587890625 22.1632022857666 Z M 4193.87158203125 21.16620254516602 C 4193.95654296875 20.45489692687988 4193.99951171875 19.73447608947754 4194 19.00710487365723 C 4193.99951171875 19.73398780822754 4193.95703125 20.45413398742676 4193.87158203125 21.16620254516602 Z M 4194 18.99289512634277 C 4193.99951171875 18.26581764221191 4193.95654296875 17.54565238952637 4193.8720703125 16.83462524414062 C 4193.95703125 17.54641151428223 4193.99951171875 18.26630973815918 4194 18.99289512634277 Z M 4162.1904296875 7.452731132507324 C 4162.50341796875 7.07948112487793 4162.83251953125 6.717932224273682 4163.17724609375 6.368248462677002 C 4162.83203125 6.718422412872314 4162.5029296875 7.080146312713623 4162.1904296875 7.452731132507324 Z M 4163.50341796875 6.045094966888428 C 4163.68212890625 5.872674942016602 4163.86376953125 5.704107761383057 4164.04833984375 5.539820671081543 C 4163.8642578125 5.703934669494629 4163.68212890625 5.872708320617676 4163.50341796875 6.045094966888428 Z M 4179.01953125 1.250855445861816 C 4178.03125 1.084944725036621 4177.02197265625 1.000329971313477 4176 1.000329971313477 C 4174.9912109375 1.000329971313477 4173.9951171875 1.082781195640564 4173.01904296875 1.244473576545715 C 4173.9970703125 1.081789970397949 4174.9921875 1 4176 1 C 4177.02099609375 1 4178.029296875 1.083944201469421 4179.01953125 1.250855445861816 Z" stroke="none"/>
    <path d="M 4176 38 C 4173.43505859375 38 4170.94677734375 37.49763870239258 4168.6044921875 36.50687026977539 C 4166.341796875 35.54996871948242 4164.31005859375 34.17998886108398 4162.5654296875 32.43500137329102 C 4160.8203125 30.69059944152832 4159.45068359375 28.65866088867188 4158.4931640625 26.39562034606934 C 4157.50244140625 24.05303955078125 4157 21.56480026245117 4157 19 C 4157 16.43519973754883 4157.50244140625 13.94696044921875 4158.4931640625 11.60437965393066 C 4159.45068359375 9.341340065002441 4160.8203125 7.309400081634521 4162.5654296875 5.565000057220459 C 4164.31005859375 3.82000994682312 4166.341796875 2.450030088424683 4168.6044921875 1.493129968643188 C 4170.94677734375 0.5023599863052368 4173.43505859375 0 4176 0 C 4178.56494140625 0 4181.0537109375 0.5023599863052368 4183.39599609375 1.493129968643188 C 4185.658203125 2.450010061264038 4187.68994140625 3.819989919662476 4189.43505859375 5.565000057220459 C 4191.1806640625 7.310530185699463 4192.55029296875 9.342470169067383 4193.5068359375 11.60437965393066 C 4194.49755859375 13.94694995880127 4195 16.43519020080566 4195 19 C 4195 21.56480979919434 4194.49755859375 24.05304908752441 4193.5068359375 26.39562034606934 C 4192.55029296875 28.65752983093262 4191.1806640625 30.6894702911377 4189.43505859375 32.43500137329102 C 4187.68994140625 34.18001174926758 4185.658203125 35.54999160766602 4183.39599609375 36.50687026977539 C 4181.0537109375 37.49763870239258 4178.56494140625 38 4176 38 Z M 4176 2.000329971313477 C 4171.45947265625 2.000329971313477 4167.1904296875 3.768569946289062 4163.9794921875 6.979320049285889 C 4160.76904296875 10.19023036956787 4159.00048828125 14.45925998687744 4159.00048828125 19 C 4159.00048828125 23.54073905944824 4160.76904296875 27.80977058410645 4163.9794921875 31.02067947387695 C 4167.1904296875 34.23143005371094 4171.45947265625 35.99966812133789 4176 35.99966812133789 C 4180.541015625 35.99966812133789 4184.81005859375 34.23143005371094 4188.02099609375 31.02067947387695 C 4191.2314453125 27.80979919433594 4193 23.54076957702637 4193 19 C 4193 14.45923042297363 4191.2314453125 10.19019985198975 4188.02099609375 6.979320049285889 C 4184.81005859375 3.768569946289062 4180.541015625 2.000329971313477 4176 2.000329971313477 Z" stroke="none" fill="#c60046"/>
  </g>
  <circle id="Ellisse_3" data-name="Ellisse 3" cx="8" cy="8" r="8" transform="translate(11 43)" fill="#c60046"/>
  <g id="Raggruppa_9" data-name="Raggruppa 9" transform="translate(0 -0.001)">
    <g id="Raggruppa_7" data-name="Raggruppa 7" transform="translate(0 0.001)" clip-path="url(#clip-path)">
      <path id="Tracciato_19" data-name="Tracciato 19" d="M37.952,9.48c-.308-.813-1.532-.693-2.341-1.6-.5-.557-.392-1-1.163-1.7-.069-.062-.134-.117-.194-.165,0,0-.142-.113-.293-.212a27.264,27.264,0,0,0-3.174-1.037,2.865,2.865,0,0,0-.016-.817,1.456,1.456,0,0,0-.408-.691,3.849,3.849,0,0,0-2.262-.8,20.392,20.392,0,0,1-3.5-.534c-.883-.3-.619-.418-2.011-1.037a6.293,6.293,0,0,0-3.5-.848c-.135.019-.064.017-1.54.487-1.385.442-2.077.662-2.341.723a15.634,15.634,0,0,0-2.749.55A5.679,5.679,0,0,0,11.2,2.52a4.181,4.181,0,0,0-3.111.927A5,5,0,0,0,6.7,3.432a4.28,4.28,0,0,0-1.163.3,7.522,7.522,0,0,0-1.068.66,10.183,10.183,0,0,1-1.712.864,5.921,5.921,0,0,0-1.037.377,3.62,3.62,0,0,0-1.037,1.1,2.576,2.576,0,0,0-.676,1.3A1.136,1.136,0,0,0,.2,8.9c.408.459,1.359.291,2.027.173a6.028,6.028,0,0,0,.911-.236,3.034,3.034,0,0,0,.283.314,1.892,1.892,0,0,0,.848.55,2.022,2.022,0,0,0,.5.047,3.164,3.164,0,0,0,.487-.031.841.841,0,0,0,.314.251,1.28,1.28,0,0,0,.456.079c.11.008.256.015.429.016a.332.332,0,0,1,.139.031,5.9,5.9,0,0,0,1.191.409,6.015,6.015,0,0,0,2.451.038.48.48,0,0,1,.223.01,20.2,20.2,0,0,1,2.26.8,8.023,8.023,0,0,1,1.068.518,5.948,5.948,0,0,1,1.423,1.21.756.756,0,0,1,.184.488c0,.427-.008,1.016-.067,1.71a18.967,18.967,0,0,1-.283,2.042c-.222,1.178-.205,2.048-.361,6.881a51.553,51.553,0,0,0-.063,6.033c.1,1.314.263,2.4.393,3.142h7.871a13.765,13.765,0,0,0,.346-1.65,13.869,13.869,0,0,0,.141-2.341c-.04-2.093-.2-4.182-.267-5.106-.2-2.916.031-2.97-.141-5.609a45.354,45.354,0,0,0-.574-4.815.231.231,0,0,1,.083-.22,5.89,5.89,0,0,1,3.413-1.453c1.665-.09,3.91.67,5.247.22a6.194,6.194,0,0,1,.9-.283c.646-.141.978-.082,1.351-.33a1.447,1.447,0,0,0,.456-.5,5.791,5.791,0,0,0,3.079-.487c.351-.179,1.07-.545,1.084-1.068a.643.643,0,0,0-.047-.251m-6.206.487.361.267-.361.126Zm-4.1-1.6a1.1,1.1,0,0,1,.063-.11.841.841,0,0,0,.094-.283,2.02,2.02,0,0,1,.314.079c.044.015.086.031.126.047a1.093,1.093,0,0,1-.189.22c-.051.045-.084.067-.141.11a2.475,2.475,0,0,0-.267.236.433.433,0,0,1,0-.3m-.817.031c.027-.091.068-.207.079-.236.054-.151.1-.274.141-.361l.5.141a.621.621,0,0,0-.141.157c-.14.225-.05.419-.126.6-.049.115-.179.252-.55.33a2.411,2.411,0,0,1,.094-.628M23.766,6.134a.469.469,0,0,1,.157-.047.636.636,0,0,1,.11,0,.407.407,0,0,0,.251-.094,1.855,1.855,0,0,0,.047.424,1.26,1.26,0,0,0,.079.251.912.912,0,0,0,.487.424A8.718,8.718,0,0,1,23.42,8.883a2.41,2.41,0,0,1-.126-.534.585.585,0,0,0-.047-.2,1.215,1.215,0,0,0-.063-.11.47.47,0,0,1-.016-.377.5.5,0,0,1,.141-.173,2.012,2.012,0,0,0,.3-.44,1.764,1.764,0,0,0,.157-.911m-.738.6a.8.8,0,0,1,.361-.487.523.523,0,0,1,.118-.039,1.159,1.159,0,0,1-.039.291,1.315,1.315,0,0,1-.534.723,1.516,1.516,0,0,1,.094-.487m-.44-.44a.919.919,0,0,0-.2.346,1.59,1.59,0,0,0-.047.408c-.006.107-.012.252-.016.424a1.042,1.042,0,0,1-.346-.283,1.306,1.306,0,0,1-.2-.424,2.427,2.427,0,0,1-.11-.471Zm-2.027.236a.389.389,0,0,1,.236-.079l-.534.958a.172.172,0,0,1-.047-.063c-.05-.117.08-.218.189-.471.083-.2.064-.27.157-.346m-.471.094a1.138,1.138,0,0,0,.189-.016c-.036.086-.069.155-.094.2a.751.751,0,0,1-.063.11A.562.562,0,0,1,20,7.045a.318.318,0,0,1-.063-.11.538.538,0,0,1-.016-.157,1.7,1.7,0,0,0-.016-.173,1.138,1.138,0,0,0,.189.016M15.408,4.956a1.026,1.026,0,0,0,.2-.063.4.4,0,0,1,.063.126.452.452,0,0,1,.016.11.538.538,0,0,0,.079.236l-.22-.079a.921.921,0,0,1-.283-.126.494.494,0,0,1-.141-.189,1.029,1.029,0,0,0,.283-.016m-1.43.456A2.079,2.079,0,0,0,14.4,5.27a5.843,5.843,0,0,0,.22.566,1.618,1.618,0,0,1,.141.377c.005.025.08.4-.031.456-.072.033-.153-.1-.44-.314s-.373-.2-.5-.346a.96.96,0,0,1-.22-.55,2.079,2.079,0,0,0,.408-.047m-1.9,1.98a7.154,7.154,0,0,1,.628.707c.143.184.268.364.377.534A2.856,2.856,0,0,1,12,8.349a2.775,2.775,0,0,1-.628-.424l.707-.534M7.631,8.569a.693.693,0,0,1,.22.016c.078.024.081.062.251.251a1.7,1.7,0,0,1,.251.3,1.059,1.059,0,0,1,.063.126,1.5,1.5,0,0,1-.189,0A1.394,1.394,0,0,1,7.883,9.2c-.291-.107-.411-.562-.424-.613a1.3,1.3,0,0,1,.173-.016m-3,.77a3.989,3.989,0,0,1-.487-.079,1.314,1.314,0,0,1-.66-.581,3,3,0,0,1,.8-.126.9.9,0,0,0,.189.361,2.05,2.05,0,0,1,.267.3,1.124,1.124,0,0,1,.079.141c-.045,0-.11-.007-.189-.016M6.154,9.5a1.4,1.4,0,0,1-.33-.063,1.331,1.331,0,0,1-.518-.361,3.141,3.141,0,0,1-.471-.581H5.95c.069.17.118.293.157.393a.538.538,0,0,0,.094.173A.932.932,0,0,0,6.39,9.2a.521.521,0,0,1,.173.283,1.663,1.663,0,0,1-.408.016m1.7.424a1.235,1.235,0,0,1-.6-.22,1.514,1.514,0,0,1-.361-.456C6.776,9.062,6.6,8.8,6.359,8.49h.8a1.19,1.19,0,0,0,.361.848,1.618,1.618,0,0,0,.9.33,1.372,1.372,0,0,1,.691.11.805.805,0,0,1,.236.22A8.338,8.338,0,0,1,7.851,9.92m3.158-.408a3.928,3.928,0,0,1-1.225-.424,2.792,2.792,0,0,1-.44-.33,3.881,3.881,0,0,0,.77-.141c.1-.029.194-.061.283-.094a2.584,2.584,0,0,0,.676.534,3.827,3.827,0,0,1,.723.408,2.275,2.275,0,0,1,.283.267c-.429-.075-.791-.154-1.068-.22m2.812.848a1.875,1.875,0,0,1-.88-.393c-.285-.257-.32-.5-.707-.786a3.088,3.088,0,0,0-.487-.267c-.245-.125-.6-.313-1.037-.566l.33-.236a3.583,3.583,0,0,0,1.65.974,3.423,3.423,0,0,0,.864.11,6.725,6.725,0,0,0,.9,1.053,4.163,4.163,0,0,0,.377.314c.235.173.37.233.518.33a2.267,2.267,0,0,1,.628.628,6.208,6.208,0,0,0-2.152-1.163m3.8.157a3.672,3.672,0,0,1-.2.817,2.939,2.939,0,0,0-.581-.817,3.353,3.353,0,0,0-.927-.613A14.848,14.848,0,0,1,13.35,7.485c-.231-.241-.417-.44-.534-.566l.676-.456a2.835,2.835,0,0,1,1.053.786c.368.45.217.579.518.974.331.434.786.637,2.231,1.445a.692.692,0,0,1,.283.267.9.9,0,0,1,.047.581m.016-1.257a3.434,3.434,0,0,0-.613-.471c-.594-.358-.831-.251-1.257-.566-.313-.232-.748-.706-.66-1.131.053-.255.253-.292.267-.566a1.083,1.083,0,0,0-.314-.691,1.9,1.9,0,0,1-.377-.471c-.018-.037-.1-.2-.063-.22.065-.048.339.605.848.628.1,0,.439,0,.534.126a1.217,1.217,0,0,1,.094.157,1.091,1.091,0,0,1,.047.11,8.389,8.389,0,0,0,.8,1.273c.552.741.593.783.644.943a1.821,1.821,0,0,1,.047.88m.094-3.3a.888.888,0,0,0-.314.424,3.519,3.519,0,0,1-.5-.55c-.1-.14-.177-.264-.283-.44-.122-.2-.216-.376-.283-.5a2.934,2.934,0,0,1,.644.141,4.67,4.67,0,0,1,.644.3c.229.118.417.222.55.3a2.714,2.714,0,0,1-.283.22c-.088.059-.129.08-.173.11M18.974,8.27c-.174-.372-.261-.558-.3-.613-.2-.3-.342-.3-.566-.66-.1-.166-.146-.284-.11-.393.031-.092.105-.136.2-.2a4.164,4.164,0,0,0,.487-.393,4.128,4.128,0,0,0,.377.393.739.739,0,0,0,.283.189.615.615,0,0,0,.3.016.889.889,0,0,0,.031.518c.071.177.166.216.236.44a.657.657,0,0,1,.031.377.667.667,0,0,1-.22.314,2.914,2.914,0,0,1-.566.424c-.044-.1-.109-.239-.189-.408m.707,3.221-.393.283a10.719,10.719,0,0,0,.031-1.728c-.017-.276-.044-.538-.079-.786a2.17,2.17,0,0,0,.911-.817c.11-.187.1-.254.361-.754s.254-.416.346-.644a1.921,1.921,0,0,1,.33-.66,1.24,1.24,0,0,1,.189-.173,2.273,2.273,0,0,0,.11.676,1.558,1.558,0,0,0,.33.628,1.383,1.383,0,0,0,.6.377,5.26,5.26,0,0,0,.11.927.975.975,0,0,1,.016.613.713.713,0,0,1-.251.3c-.517.379-1.224.809-1.461.958-.214.135-.525.357-1.147.8m6.457-2.969a3.336,3.336,0,0,1-.189,1.273,2.967,2.967,0,0,1-.2.3,2.533,2.533,0,0,1-.44.456c-.289.214-.467.141-1.053.314-.149.044-.319.113-.66.251-.373.151-.877.367-1.477.66.713-.649,1.288-1.152,1.681-1.492a7.092,7.092,0,0,0,.88-.833,8.2,8.2,0,0,0,.88-1.3c.146-.258.257-.477.33-.628l.55.11a2.628,2.628,0,0,0-.3.9m.22,2.089a2.9,2.9,0,0,0,.267-.44,5.235,5.235,0,0,0,.2-.55c.242-.539.881-.447,1.524-1.115a2.5,2.5,0,0,0,.267-.33c.223.073.46.161.707.267.167.072.324.146.471.22a4.86,4.86,0,0,1-3.441,1.948m3.331.99a1.429,1.429,0,0,1-.958-.157,7.495,7.495,0,0,0,2.215-2.089,2.608,2.608,0,0,1,.33.251.568.568,0,0,1,.141.157.638.638,0,0,1,.031.361,1.178,1.178,0,0,1-.063.346,1.041,1.041,0,0,1-.346.424,2.453,2.453,0,0,1-.55.314,5.913,5.913,0,0,1-.8.393m2.278-.55a3.887,3.887,0,0,1-.786.408c-.134.056-.248.1-.33.126a1.8,1.8,0,0,0,.361-.251,2.233,2.233,0,0,0,.361-.424,1.4,1.4,0,0,1,.267-.377.748.748,0,0,1,.2-.126.412.412,0,0,1,.236-.047.367.367,0,0,1,.236.189,2.944,2.944,0,0,1-.55.5m1.445.377a1.325,1.325,0,0,1-.487.2,1.869,1.869,0,0,1-.581.047,4.07,4.07,0,0,1,.33-.33c.073-.065.127-.108.2-.189a1.987,1.987,0,0,0,.2-.251c.121.054.247.116.377.189q.1.055.189.11a1.2,1.2,0,0,1-.236.22" transform="translate(0 -0.002)" fill="#c60046"/>
    </g>
  </g>
</svg>
