<svg xmlns="http://www.w3.org/2000/svg" width="105.511" height="105.603" viewBox="0 0 105.511 105.603">
  <g id="logo-baobab-01" transform="translate(-0.7 -0.997)">
    <path id="Tracciato_1" data-name="Tracciato 1" d="M8.4,85.2A4.537,4.537,0,0,0,9,78a6.839,6.839,0,0,0-4.4-1.2H.7V94.5H6a6.917,6.917,0,0,0,4.4-1.3A3.933,3.933,0,0,0,12,89.7Q12,86.25,8.4,85.2Zm-5.9-.4V78.4H4.1c3,0,4.5,1,4.5,3.2s-1.5,3.2-4.5,3.2H2.5Zm7.6,4.9A3.194,3.194,0,0,1,9,92.1a4.623,4.623,0,0,1-3.2.9H2.5V86.5H5.2C8.5,86.4,10.1,87.4,10.1,89.7Z" fill="#1e1e1c"/>
    <path id="Tracciato_2" data-name="Tracciato 2" d="M23.4,76.7,15.2,94.5h1.9l2.7-5.9H28l2.7,5.9h1.9L24.4,76.7ZM27.3,87H20.6l3.3-7.3Z" fill="#1e1e1c"/>
    <path id="Tracciato_3" data-name="Tracciato 3" d="M44,76.6a9.3,9.3,0,0,0-6.6,2.6,9.087,9.087,0,0,0-.2,12.7l.2.2a9.61,9.61,0,0,0,13.2,0,8.965,8.965,0,0,0,.2-12.6l-.2-.2A8.609,8.609,0,0,0,44,76.6Zm7.5,9.1A7.256,7.256,0,0,1,44.3,93h-.1a7.4,7.4,0,0,1-5.3-2.1,7.3,7.3,0,0,1,0-10.4h0a7.009,7.009,0,0,1,5.3-2.1,7.341,7.341,0,0,1,7.4,7.2c-.1-.1-.1,0-.1.1Z" fill="#1e1e1c"/>
    <path id="Tracciato_4" data-name="Tracciato 4" d="M66.5,85.2a4.364,4.364,0,0,0,2.1-3.7,4.037,4.037,0,0,0-1.5-3.4,6.839,6.839,0,0,0-4.4-1.2H58.9V94.6h5.3a6.917,6.917,0,0,0,4.4-1.3,3.933,3.933,0,0,0,1.6-3.5A4.6,4.6,0,0,0,66.5,85.2Zm-5.9-.4V78.4h1.6c3,0,4.5,1,4.5,3.2s-1.5,3.2-4.4,3.2H60.6Zm7.6,4.9a3.194,3.194,0,0,1-1.1,2.4,4.623,4.623,0,0,1-3.2.9H60.6V86.5h2.7c3.4-.1,4.9.9,4.9,3.2Z" fill="#1e1e1c"/>
    <path id="Tracciato_5" data-name="Tracciato 5" d="M81.5,76.7,73.3,94.5h1.9l2.7-5.9H86l2.7,5.9h1.9L82.4,76.7ZM85.3,87H78.6l3.3-7.3Z" fill="#1e1e1c"/>
    <path id="Tracciato_6" data-name="Tracciato 6" d="M102.5,85.2a4.364,4.364,0,0,0,2.1-3.7,4.037,4.037,0,0,0-1.5-3.4,6.839,6.839,0,0,0-4.4-1.2H94.9V94.6h5.3a6.917,6.917,0,0,0,4.4-1.3,3.933,3.933,0,0,0,1.6-3.5A4.6,4.6,0,0,0,102.5,85.2Zm-5.9-.4V78.4h1.6c3,0,4.5,1,4.5,3.2s-1.5,3.2-4.4,3.2H96.6Zm7.6,4.9a3.194,3.194,0,0,1-1.1,2.4,4.623,4.623,0,0,1-3.2.9H96.6V86.5h2.7c3.3-.1,4.9.9,4.9,3.2Z" fill="#1e1e1c"/>
    <path id="Tracciato_7" data-name="Tracciato 7" d="M2.5,104.8a2.657,2.657,0,0,1,0-3.7,2.372,2.372,0,0,1,2-.7,4.756,4.756,0,0,1,2.3.7V100a5.325,5.325,0,0,0-2.4-.6,3.541,3.541,0,0,0-2.6,1A3.631,3.631,0,0,0,.7,103a3.371,3.371,0,0,0,.5,1.7A3.25,3.25,0,0,0,2.5,106a4.552,4.552,0,0,0,2,.5,5.421,5.421,0,0,0,2.5-.6v-1.1a5.266,5.266,0,0,1-2.4.8A2.865,2.865,0,0,1,2.5,104.8Z" fill="#c61248"/>
    <path id="Tracciato_8" data-name="Tracciato 8" d="M13.1,99.4a3.541,3.541,0,0,0-2.6,1,3.625,3.625,0,0,0,0,5,3.541,3.541,0,0,0,2.6,1,3.775,3.775,0,0,0,2.7-1,3.592,3.592,0,0,0,.1-5l-.1-.1A4.188,4.188,0,0,0,13.1,99.4Zm2,5.4a2.28,2.28,0,0,1-1.9.7,2.554,2.554,0,0,1-1.9-4.4,2.372,2.372,0,0,1,2-.7,3.157,3.157,0,0,1,1.9.7,2.5,2.5,0,0,1,.8,1.8,3.379,3.379,0,0,1-.9,1.9Z" fill="#c61248"/>
    <path id="Tracciato_9" data-name="Tracciato 9" d="M22.9,102.3l-2.2-2.8h-1v6.9h1v-5.3l2.1,2.6H23l2.1-2.6v5.3h1V99.5h-.9Z" fill="#c61248"/>
    <path id="Tracciato_10" data-name="Tracciato 10" d="M32.5,102.3l-2.3-2.8h-.9v6.9h.9v-5.3l2.2,2.6h.2l2.1-2.6v5.3h.9V99.5h-.9Z" fill="#c61248"/>
    <path id="Tracciato_11" data-name="Tracciato 11" d="M43.6,103.4a3.75,3.75,0,0,1-.1,1.1,2.092,2.092,0,0,1-.4.6,2.389,2.389,0,0,1-1.4.5,4.253,4.253,0,0,1-1.1-.2,1.344,1.344,0,0,1-.7-.6,2,2,0,0,1-.2-1.3V99.6h-1v3.9a4.869,4.869,0,0,0,.1,1.2,4.875,4.875,0,0,1,.3.7c.1.2.3.3.4.5a3.408,3.408,0,0,0,2.2.7,3.139,3.139,0,0,0,2.1-.7l.4-.4a3.07,3.07,0,0,0,.4-1.9V99.7h-1Z" fill="#c61248"/>
    <path id="Tracciato_12" data-name="Tracciato 12" d="M53.1,104.9l-4.7-5.4h-.7v6.9h.9v-5.3l4.6,5.3H54V99.5h-.9Z" fill="#c61248"/>
    <rect id="Rettangolo_1" data-name="Rettangolo 1" width="1" height="6.8" transform="translate(57.2 99.5)" fill="#c61248"/>
    <path id="Tracciato_13" data-name="Tracciato 13" d="M62.9,104.8a2.657,2.657,0,0,1,0-3.7h0a2.372,2.372,0,0,1,2-.7,4.756,4.756,0,0,1,2.3.7V100a4.645,4.645,0,0,0-2.3-.6,3.541,3.541,0,0,0-2.6,1,3.408,3.408,0,0,0-1.1,2.5,3.371,3.371,0,0,0,.5,1.7,2.735,2.735,0,0,0,1.3,1.3,4.552,4.552,0,0,0,2,.5,5.421,5.421,0,0,0,2.5-.6v-1.1a5.266,5.266,0,0,1-2.4.8A2.684,2.684,0,0,1,62.9,104.8Z" fill="#c61248"/>
    <path id="Tracciato_14" data-name="Tracciato 14" d="M72.6,99.5l-3,6.9h1l.8-2h3l.9,2h1l-3.1-6.9Zm-.7,3.9,1-2.5,1.1,2.5Z" fill="#c61248"/>
    <path id="Tracciato_15" data-name="Tracciato 15" d="M77.2,100.4h2.4v6h1v-6H83v-.9H77.2Z" fill="#c61248"/>
    <rect id="Rettangolo_2" data-name="Rettangolo 2" width="1" height="6.8" transform="translate(85.6 99.5)" fill="#c61248"/>
    <path id="Tracciato_16" data-name="Tracciato 16" d="M93.2,99.4a3.541,3.541,0,0,0-2.6,1,3.188,3.188,0,0,0-1,2.6,3.471,3.471,0,0,0,1,2.5,3.541,3.541,0,0,0,2.6,1,3.775,3.775,0,0,0,2.7-1A3.408,3.408,0,0,0,97,103a3.25,3.25,0,0,0-1.1-2.5A4.251,4.251,0,0,0,93.2,99.4Zm1.9,5.4a2.782,2.782,0,0,1-3.8,0,2.657,2.657,0,0,1,0-3.7,2.372,2.372,0,0,1,2-.7,3.157,3.157,0,0,1,1.9.7,2.5,2.5,0,0,1,.8,1.8,3.379,3.379,0,0,1-.9,1.9Z" fill="#c61248"/>
    <path id="Tracciato_17" data-name="Tracciato 17" d="M105.2,99.5v5.4l-4.6-5.4h-.8v6.9h.9v-5.3l4.6,5.3h.8V99.5Z" fill="#c61248"/>
    <path id="Tracciato_18" data-name="Tracciato 18" d="M77.7,24.5A22.606,22.606,0,0,0,70.6,7.8,24.436,24.436,0,0,0,53.4,1,24.1,24.1,0,0,0,36.2,7.9a22.356,22.356,0,0,0-7,16.7,22.356,22.356,0,0,0,7,16.7,28.26,28.26,0,0,0,5.2,3.9V69.7H54.8c4.7,0,8.5-1.1,11.2-3.3a10.544,10.544,0,0,0,4.1-8.9c0-5.4-2.7-9.1-8.1-10.9a22.2,22.2,0,0,0,8.5-5.3A22.547,22.547,0,0,0,77.7,24.5ZM54,44.7h-.5A22.615,22.615,0,0,1,45,43V26.8h4.8c8.4,0,12.6,3,12.6,9.1C62.4,40.9,59.6,43.8,54,44.7ZM66.4,57.4a8.161,8.161,0,0,1-3,6.7c-2,1.7-5,2.5-8.9,2.5H45V48h7.9C61.9,48,66.4,51.1,66.4,57.4Zm-2-15.7a10.817,10.817,0,0,0,1.8-6A10.519,10.519,0,0,0,62.3,27c-2.6-2.1-6.4-3.1-11.4-3.1H41.4V41A12.065,12.065,0,0,1,39,38.9a19.169,19.169,0,0,1-5.9-14.3A19.546,19.546,0,0,1,39,10.2,20.168,20.168,0,0,1,53.5,4.3a19.546,19.546,0,0,1,14.4,5.9,19.546,19.546,0,0,1,5.9,14.4,19.169,19.169,0,0,1-5.9,14.3,19.549,19.549,0,0,1-3.5,2.8Z" fill="#c61248"/>
  </g>
</svg>
